<svg id="Layer_1" data-name="Layer 1" xmlns="http://www.w3.org/2000/svg" viewBox="0 0 814.11 466.99"><defs><style>.cls-1{fill:#f15822;}</style></defs><title>Artboard 1</title><rect class="cls-1" x="205.57" y="7.27" width="38.07" height="170.59"/><polygon class="cls-1" points="90.3 7.27 90.3 177.85 178.38 177.85 178.38 162.15 128.36 165.22 128.36 7.27 90.3 7.27"/><polygon class="cls-1" points="519.95 7.27 519.95 177.85 608.05 177.85 608.05 162.15 558.03 165.22 558.03 7.27 519.95 7.27"/><polygon class="cls-1" points="635.23 7.27 635.23 177.85 723.32 177.85 723.32 162.15 673.3 165.22 673.3 95.63 712.57 95.63 712.57 79.92 673.3 82.99 673.3 19.92 723.32 22.98 723.32 7.27 635.23 7.27"/><polygon class="cls-1" points="270.81 7.27 270.81 22.98 306.4 20.8 306.4 177.85 344.47 177.85 344.47 19.92 419.12 19.92 419.12 177.85 457.19 177.85 457.19 20.8 492.78 22.98 492.78 7.27 270.81 7.27"/><path class="cls-1" d="M473.09,352c.57,35.22-5.72,59.13-36,59.13-22.69,0-34.57-21.87-34.57-54.46v-106H367.65l0,106c0,61.55,44.94,68,63.25,68,50.65,0,55.52-33.84,55.52-72.77V250.63H469.78s2.9,76,3.31,101.33"/><path class="cls-1" d="M36.92,284.14c0-8.74,6-25.14,22.21-25.14,23.09,0,21.43,24,21.43,24h9.65V252c-21.07-11.87-82.58-7.63-82.58,47.46,0,51,60.69,46.49,60.69,81.83,0,16.54-8.25,31.57-26.57,31.57-21.6,0-27-26.64-27-26.64H6v31.2a135.53,135.53,0,0,0,42.55,7.23c23.2,0,50.86-17.37,50.86-54,0-50.52-62.52-46.28-62.52-86.51"/><polygon class="cls-1" points="163.23 213.71 193.84 282 209.94 275.59 179.32 207.29 163.23 213.71"/><polygon class="cls-1" points="178.71 294.15 125.67 239.4 112.77 250.51 165.81 305.25 178.71 294.15"/><polygon class="cls-1" points="294.72 213.71 278.63 207.29 248.01 275.59 264.1 282 294.72 213.71"/><polygon class="cls-1" points="279.24 294.15 292.13 305.25 345.17 250.51 332.27 239.4 279.24 294.15"/><polygon class="cls-1" points="163.22 457.75 179.31 464.16 209.93 395.87 193.84 389.46 163.22 457.75"/><polygon class="cls-1" points="165.81 366.2 112.77 420.95 125.67 432.05 178.71 377.3 165.81 366.2"/><polygon class="cls-1" points="248.01 395.87 278.62 464.16 294.71 457.75 264.1 389.46 248.01 395.87"/><polygon class="cls-1" points="279.24 377.3 332.27 432.05 345.17 420.95 292.13 366.2 279.24 377.3"/><path class="cls-1" d="M711.38,410.27V261.46c26-1.92,54.64-3.62,54.64,79.39,0,80.19-54.64,69.42-54.64,69.42m92.92-79.1c0-77.32-48.72-80.55-77.57-80.55H673.3V421.21H733c74.94,0,71.29-90,71.29-90"/><polygon class="cls-1" points="614.79 250.63 620.25 363.03 620.25 363.13 546.83 250.63 519.96 250.63 519.96 251 519.96 299.33 519.96 421.21 533.31 421.21 539.86 421.21 534.43 299.66 613.81 421.21 634.7 421.21 634.7 363.03 634.7 250.63 621.35 250.63 614.79 250.63"/></svg>