<svg id="Layer_1" data-name="Layer 1" xmlns="http://www.w3.org/2000/svg" viewBox="0 0 1224 792"><defs><style>.cls-1{fill:none;stroke:#f15822;stroke-linecap:round;stroke-miterlimit:10;stroke-width:2px;}</style></defs><title>Artboard 2</title><path class="cls-1" d="M986.12,182s-29.3-1.8-48.83-14.36-23.38-19-46.41-19S864,155,844.47,167.6,808.37,182,795.64,182s-29.3-1.8-48.83-14.36-23.38-19-46.41-19S673.52,155,654,167.6,617.89,182,605.16,182s-29.29-1.8-48.82-14.36-23.39-19-46.42-19S483,155,463.51,167.6,427.41,182,414.68,182s-29.29-1.8-48.82-14.36-23.39-19-46.42-19S292.56,155,273,167.6,224.2,182,224.2,182m36.38,431,163.16.46M260.58,494l163.16,5.46M260.58,364l163.16,22.47M527.25,261.54s-103.51-52.82-103.51,72V763M364.09,242.8s-103.51-52.81-103.51,72V744.26M88,173.41v512H1136V173.41m0,0c0,79.75-234.6,144.41-524,144.41S88,253.16,88,173.41,322.6,29,612,29,1136,93.65,1136,173.41Z"/></svg>